inDegrees=yes
name=ik_orientation_Tpose_Zug
DataType=double
version=3
OpenSimVersion=4.3-2021-08-27-4bc7ad9
endheader
time	pelvis_tilt	pelvis_list	pelvis_rotation	pelvis_tx	pelvis_ty	pelvis_tz	hip_flexion_r	hip_adduction_r	hip_rotation_r	knee_angle_r	knee_angle_r_beta	ankle_angle_r	subtalar_angle_r	mtp_angle_r	hip_flexion_l	hip_adduction_l	hip_rotation_l	knee_angle_l	knee_angle_l_beta	ankle_angle_l	subtalar_angle_l	mtp_angle_l	lumbar_extension	lumbar_bending	lumbar_rotation	arm_flex_r	arm_add_r	arm_rot_r	elbow_flex_r	pro_sup_r	wrist_flex_r	wrist_dev_r	arm_flex_l	arm_add_l	arm_rot_l	elbow_flex_l	pro_sup_l	wrist_flex_l	wrist_dev_l
5	-0.1065575556898804	-0.8413969479231409	147.5552811595385	0	0.9399999999999999	0	4.271829071125649	-2.192291875490668	0	12.12498870811384	0.2116209747237202	-1.339100006671558	0	0	4.271829071125649	-2.192291875490668	0	12.12498870811384	0.2116209747237202	-1.339100006671558	0	0	2.203739771708921	-0.06676857489911241	-3.66706067327637	82.10607624149694	-31.66156492342328	-5.219582296680622	0.001655492127573612	15.7161404555787	0	0	0	-0.521520442337443	0	16.52015331235789	15.7161404555787	0	0
5.01	-0.121195941618753	-0.8421631316088725	147.5563015200252	0	0.9399999999999999	0	7.450071014054294	-3.386641575694538	0	16.49130718958583	0.2878276084160853	-1.983715481304375	0	0	7.450071014054294	-3.386641575694538	0	16.49130718958583	0.2878276084160853	-1.983715481304375	0	0	2.200029493591731	-0.07763393659796962	-3.657943715416049	81.80344068315678	-31.89981739363316	-5.169000548256943	0.001664661831580749	20.10395244461727	0	0	0	-1.150014646406299	0	21.83561396567139	20.10395244461727	0	0
5.02	-0.1235294128518957	-0.8533671727622811	147.5784282608531	0	0.9399999999999999	0	9.577818003584296	-4.198889391404821	0	19.29208460883352	0.3367103959974673	-2.421888901908837	0	0	9.577818003584296	-4.198889391404821	0	19.29208460883352	0.3367103959974673	-2.421888901908837	0	0	2.20852774480923	-0.08203957892624651	-3.670927148133224	81.25447254852662	-32.31608474309369	-5.320848609579448	0.001679317954386052	23.03680044425828	0	0	0	-1.558026015311171	0	25.3836220882311	23.03680044425828	0	0
5.03	-0.1274130054137367	-0.8546436390438177	147.5680435417263	0	0.9399999999999999	0	10.87289185581278	-4.673915491801768	0	20.91726422717891	0.3650751312738991	-2.673189042540224	0	0	10.87289185581278	-4.673915491801768	0	20.91726422717891	0.3650751312738991	-2.673189042540224	0	0	2.218504754663308	-0.07213648355036482	-3.651641453227913	80.73669648210054	-32.63506817384064	-5.349640466529642	0.001693671106334235	24.71567154865743	0	0	0	-1.811755178859512	0	27.47647552874534	24.71567154865743	0	0
5.04	-0.1337688741084328	-0.8616515433953793	147.5742428695686	0	0.9399999999999999	0	10.89033919993746	-4.681624771555857	0	20.93877423466463	0.3654505517266537	-2.677525916541707	0	0	10.89033919993746	-4.681624771555857	0	20.93877423466463	0.3654505517266537	-2.677525916541707	0	0	2.195098693466323	-0.0781871096225413	-3.654364888880679	80.3355719038456	-32.9043030003744	-5.623014849569624	0.001703702281499432	24.74424774835042	0	0	0	-1.814535471748697	0	27.50860741085517	24.74424774835042	0	0
5.05	-0.120629463111866	-0.8707369716813687	147.5770837035965	0	0.9399999999999999	0	12.45277454686482	-5.218912601574989	0	22.83460453688247	0.3985390325594341	-2.955060720919924	0	0	12.45277454686482	-5.218912601574989	0	22.83460453688247	0.3985390325594341	-2.955060720919924	0	0	2.223294496907667	-0.07935209863468098	-3.657828164396804	80.03133441185665	-32.91565752777533	-5.547585306518577	0.001711143110809915	26.62530393282611	0	0	0	-2.135136540967288	0	29.95240268608665	26.62530393282611	0	0
5.06	-0.1210247008423977	-0.8755426240134379	147.5882057586304	0	0.9399999999999999	0	13.3373421534026	-5.512599876576216	0	23.87330394257406	0.4166677571272607	-3.104210077777361	0	0	13.3373421534026	-5.512599876576216	0	23.87330394257406	0.4166677571272607	-3.104210077777361	0	0	2.221040786344227	-0.09277876854944048	-3.648385669857284	79.82294924311938	-33.04237771639692	-5.314952235483671	0.00171920955769734	27.6455147626464	0	0	0	-2.319640026623294	0	31.31041475884944	27.6455147626464	0	0
5.07	-0.1194430054982917	-0.902304212376737	147.5866128944018	0	0.9399999999999999	0	13.34759865438358	-5.516825575109448	0	23.88512698069247	0.4168741080700157	-3.10651531036607	0	0	13.34759865438358	-5.516825575109448	0	23.88512698069247	0.4168741080700157	-3.10651531036607	0	0	2.242846284589723	-0.1161331088333553	-3.634215738150699	79.95126196300329	-32.95532174211809	-4.943510043864983	0.001718332411748609	27.66048484358292	0	0	0	-2.321402047580062	0	31.32795989379635	27.66048484358292	0	0
5.08	-0.144046533664028	-0.9183055100127169	147.6037070141204	0	0.9399999999999999	0	14.26284479866965	-5.822313454088571	0	24.96004474743814	0.4356349622879119	-3.261447563598752	0	0	14.26284479866965	-5.822313454088571	0	24.96004474743814	0.4356349622879119	-3.261447563598752	0	0	2.231387925733847	-0.1648461589567934	-3.632082004030237	79.420318695445	-33.3012928696609	-5.114071757636431	0.00173247695276723	28.72042363581397	0	0	0	-2.510279325119087	0	32.73812766777461	28.72042363581397	0	0
5.09	-0.1101943407286159	-0.8908886776929126	147.6058903483177	0	0.9399999999999999	0	15.09906804048668	-6.095957795758582	0	25.93016742638007	0.4525667971837165	-3.39876902533826	0	0	15.09906804048668	-6.095957795758582	0	25.93016742638007	0.4525667971837165	-3.39876902533826	0	0	2.252618963363933	-0.09152290647640111	-3.627511827259547	78.89460057111094	-33.57418194640405	-5.163515338297007	0.001747631471362262	29.66812063408839	0	0	0	-2.683921388517378	0	34.01665257836362	29.66812063408839	0	0
5.1	-0.108422620894069	-0.9237343985485335	147.6203781281714	0	0.9399999999999999	0	15.11030268384946	-6.100313455836105	0	25.94261694079941	0.4527840822006085	-3.401081742792262	0	0	15.11030268384946	-6.100313455836105	0	25.94261694079941	0.4527840822006085	-3.401081742792262	0	0	2.268840792978804	-0.1130617251058348	-3.620917401023758	79.04176864980039	-33.40037062291421	-4.706043095171863	0.001746003543369222	29.68326501784048	0	0	0	-2.68594711384238	0	34.03507655329536	29.68326501784048	0	0
5.11	-0.103097909601045	-0.9363938804864401	147.6327068810264	0	0.9399999999999999	0	15.12036155097233	-6.104205580609871	0	25.95377081780879	0.4529787540787847	-3.403147033710097	0	0	15.12036155097233	-6.104205580609871	0	25.95377081780879	0.4529787540787847	-3.403147033710097	0	0	2.280870739993843	-0.1249271969575814	-3.626391135338879	79.22436338344016	-33.33385078576009	-4.309540406821842	0.001744513840172697	29.69679650627951	0	0	0	-2.687764434927276	0	34.05155815628204	29.69679650627951	0	0
5.12	-0.1008061892515485	-0.9227777476930437	147.6474843011569	0	0.9399999999999999	0	15.96617470782424	-6.367967257452171	0	26.92211710849772	0.4698795851507806	-3.533134189840317	0	0	15.96617470782424	-6.367967257452171	0	26.92211710849772	0.4698795851507806	-3.533134189840317	0	0	2.280079251734829	-0.08554070808818344	-3.626447144863131	78.82401032211692	-33.46162070559767	-4.387827374701422	0.0017549089013263	30.61360947125993	0	0	0	-2.868282800682108	0	35.32714144381332	30.61360947125993	0	0
5.13	-0.1165521757401772	-0.9423212426751839	147.6576359382958	0	0.9399999999999999	0	15.97733940941896	-6.372158169729398	0	26.93428248188005	0.4700919109710368	-3.535328014449757	0	0	15.97733940941896	-6.372158169729398	0	26.93428248188005	0.4700919109710368	-3.535328014449757	0	0	2.284313883488115	-0.1108946868250053	-3.627969741499403	78.95673866955408	-33.19357586086308	-3.72282361965522	0.001754471618302596	30.62809987098369	0	0	0	-2.870343150661774	0	35.34512139057927	30.62809987098369	0	0
5.14	-0.1314196297523902	-0.9328110120651768	147.6701734250898	0	0.9399999999999999	0	16.65932316842843	-6.581019928956193	0	27.70501360820486	0.4835437067730091	-3.637301892570342	0	0	16.65932316842843	-6.581019928956193	0	27.70501360820486	0.4835437067730091	-3.637301892570342	0	0	2.247556928251579	-0.1334280903642648	-3.623106613379155	78.55496360123897	-33.43536543250291	-3.759815086814491	0.001766144124048422	31.35453185936626	0	0	0	-3.016707340123894	0	36.36819610251863	31.35453185936626	0	0
